<svg xmlns="http://www.w3.org/2000/svg" xmlns:xlink="http://www.w3.org/1999/xlink" width="512" height="512" viewBox="0 0 512 512"><defs><filter id="a" x="118" y="113" width="276.77" height="292.411" filterUnits="userSpaceOnUse"><feOffset dy="3" input="SourceAlpha"/><feGaussianBlur stdDeviation="3" result="b"/><feFlood flood-opacity="0.475"/><feComposite operator="in" in2="b"/><feComposite in="SourceGraphic"/></filter></defs><g transform="translate(-3148 2927)"><rect width="512" height="512" transform="translate(3148 -2927)" fill="rgba(223,252,253,0)"/><g transform="translate(3275 -2808)"><g transform="matrix(1, 0, 0, 1, -127, -119)" filter="url(#a)"><path d="M0,45.537,127.7,0,258.77,44.745,237.585,213.629,127.7,274.411,19.6,214.421Z" transform="translate(127 119)" fill="#e23237" fill-rule="evenodd"/></g><path d="M257.044,44.745,125.977,0V274.411L235.86,213.629,257.044,44.745Z" transform="translate(1.726)" fill="#b52e31" fill-rule="evenodd"/><path d="M127.247,31.641l-79.591,177,29.7-.594,16.037-39.993h71.077l17.423,40.389,28.312.594-82.957-177.4Zm.2,56.822,26.926,56.228H103.885Z" transform="translate(0.652 0.433)" fill="#fff" fill-rule="evenodd"/></g><g transform="translate(3148 -2881)"><path d="M966-963.73c0,.131.52,3.133,1.2,6.658,2.4,13.185,4.439,20.235,8.2,28.589,6.159,13.838,14.758,21.932,26.837,25.239,3.64,1.044,10.159,2.045,10.559,1.654a74.48,74.48,0,0,0,.2-7.659c0-6.527-.12-7.963-.96-11.184-3.24-12.663-11.119-23.019-24.357-31.9a174.492,174.492,0,0,0-18.2-10.139C966.16-964.035,966-964.078,966-963.73Z" transform="translate(-579.638 963.907)" fill="#0093ff"/><path d="M240.982-962.05c-.88.479-4.239,2.176-7.439,3.829-22.677,11.662-34.156,24.8-36.955,42.253a58.676,58.676,0,0,0-.36,13.707l.28,2.045,1.84-.261c7.6-1.088,11.958-2.35,16.638-4.874,11.719-6.4,19.718-19.016,24.557-38.859,1.08-4.351,3.64-17.319,3.64-18.363C243.182-963.051,242.822-962.964,240.982-962.05Z" transform="translate(-117.586 963.315)" fill="#0093ff"/><path d="M1108.279-926.6c-5.2,11.4-8.2,19.887-9.919,28.285-1.28,6.179-1.28,16.622,0,21.888a46.459,46.459,0,0,0,10.839,20.147l3.359,3.829,1.6-1.654c4.319-4.482,8.719-12.532,10.479-19.06,1.76-6.614,1.92-16.231.4-24.368a124.573,124.573,0,0,0-6.2-19.8c-2.08-5.048-7.079-15.665-7.4-15.665C1111.318-933,1109.918-930.128,1108.279-926.6Z" transform="translate(-658.484 946.449)" fill="#0093ff"/><path d="M122.858-926.691C114.54-909.633,110.9-896.84,110.9-884.917a43.274,43.274,0,0,0,1.72,13.751,47.371,47.371,0,0,0,9.639,17.406l2.16,2.306,3.08-3.437a45.034,45.034,0,0,0,8.479-12.924,41.506,41.506,0,0,0,3.64-15.926c.52-11.14-2.64-23.411-10.439-40.774-1.88-4.09-3.48-7.485-3.56-7.485S124.3-929.607,122.858-926.691Z" transform="translate(-66.534 945.884)" fill="#0093ff"/><path d="M988-831.171c0,1,5.319,17.711,6.919,21.8,7.239,18.32,16.638,28.72,29.476,32.723,6.039,1.914,15.8,2.741,16.238,1.392a36.658,36.658,0,0,0-.2-5.787c-1.88-22.323-14.638-36.335-42.835-47.083C990.48-830.866,988-831.65,988-831.171Z" transform="translate(-592.839 889.006)" fill="#0093ff"/><path d="M205.674-828.152c-15.878,5.831-25.277,11.357-32.956,19.408-8.039,8.4-11.838,17.71-12.638,30.634l-.28,4.526,5.559-.261c20.677-1,33.876-13.838,43.035-41.861,1.8-5.483,4.4-14.621,4.2-14.8C212.513-830.545,209.434-829.5,205.674-828.152Z" transform="translate(-95.876 888.554)" fill="#0093ff"/><path d="M1170.055-789.831c-12.679,17.188-18.878,29.59-20.6,41.3-.72,4.787-.32,13.577.8,17.754a57.6,57.6,0,0,0,6.079,14.012c2.28,3.786,1.88,3.742,5.719.653,15.438-12.445,20.117-31.548,14.6-59.224-.96-4.743-3.959-16.449-4.32-16.884C1172.175-792.4,1171.135-791.31,1170.055-789.831Z" transform="translate(-689.504 866.942)" fill="#0093ff"/><path d="M62.926-791.319c-.36.653-3.48,13.055-4.279,16.971-4.439,22.106-2.28,38.815,6.6,50.913a45.142,45.142,0,0,0,4.719,5.483c2.68,2.48,6.4,5.526,6.759,5.526.44,0,3.72-5.657,5.479-9.443a39.531,39.531,0,0,0,3.92-17.145,39.9,39.9,0,0,0-.44-9.573c-1.8-9.617-5.519-18.1-12.918-29.46C68.845-784.008,63.166-791.71,62.926-791.319Z" transform="translate(-33.838 866.429)" fill="#0093ff"/><path d="M1058.98-696.785c1.04,27.023,6.319,43.036,17.4,52.7,4.919,4.264,12.719,8.311,17.918,9.225l1.64.3.92-4.047c1.32-5.875,1.36-15.97.04-21.235-2.4-9.66-8.119-19.016-16.878-27.676a156.528,156.528,0,0,0-19.757-15.839l-1.56-1.044Z" transform="translate(-635.262 817.325)" fill="#0093ff"/><path d="M155.721-698.3c-8,5.831-11.279,8.659-16.718,14.4-11.319,11.967-16.278,23.629-15.758,37.249.24,6.4,1.6,13.272,2.64,13.272,2.88,0,11.918-4.047,16.478-7.441C152.2-648,158.6-661.269,160.88-678.98c.76-5.787,1.56-18.537,1.36-21.714L162.12-703Z" transform="translate(-73.919 816.534)" fill="#0093ff"/><path d="M1195.81-637.127c-12.878,8.442-21.2,15.883-26.437,23.629-6.119,9.051-8.639,17.8-8.159,28.154a58.607,58.607,0,0,0,1.88,12.445l.36,1,2.72-.74c15.678-4.439,26.157-16.405,31.316-35.9a143.986,143.986,0,0,0,3.56-22.454c.68-8.485.8-10.008.68-10.008C1201.689-641,1199.01-639.259,1195.81-637.127Z" transform="translate(-696.742 781.513)" fill="#0093ff"/><path d="M17.315-637.608c.12.783.32,3.307.44,5.57C19.6-601.36,28.634-582.3,45.272-573.945c2.48,1.262,9.279,3.7,10.239,3.7.36,0,1.48-5.135,2.08-9.573a56.79,56.79,0,0,0-.76-16.318c-3.24-12.837-11.4-23.411-26.677-34.594-3.88-2.828-12.2-8.268-12.678-8.268C17.275-639,17.2-638.347,17.315-637.608Z" transform="translate(-10.345 780.383)" fill="#0093ff"/><path d="M1059.165-582.224c-4.12,20.931-4.44,36.77-1,48.041,3.36,11.183,9.559,18.929,20.277,25.326a19.792,19.792,0,0,0,2.88,1.566c.04-.087.8-1.7,1.68-3.612a46.122,46.122,0,0,0,4.36-22.106c-.76-14.752-8.2-29.5-23.717-46.822l-4.079-4.569Z" transform="translate(-633.527 749.543)" fill="#0093ff"/><path d="M168.1-577.525c-7.2,8.4-11.039,13.577-14.678,19.93-9.559,16.579-10.919,32.245-4.2,47.649,1.96,4.526,1.8,4.352,3.84,3.264a56.69,56.69,0,0,0,11.279-8.66c6.519-6.745,10.479-15.448,11.878-25.979.64-4.874.52-16.405-.24-22.8-.64-5.352-2.76-18.233-3.08-18.581A49.061,49.061,0,0,0,168.1-577.525Z" transform="translate(-87.021 748.586)" fill="#0093ff"/><path d="M1183.374-492.835c-20,3.481-32.036,8.79-40.435,17.841a43.544,43.544,0,0,0-9.759,17.928c-.84,2.915-2.12,10.574-1.84,10.879.4.435,5.679,1,9.439,1,16.678,0,30.276-10.487,42.354-32.68,2.32-4.264,7.639-15.274,7.639-15.8C1190.773-494.053,1189.414-493.923,1183.374-492.835Z" transform="translate(-678.827 698.403)" fill="#0093ff"/><path d="M-.018-492.634c0,.131,1.48,3.438,3.32,7.267,6.119,12.88,10.479,19.712,17.038,26.849,6.439,6.962,12.318,10.922,19.677,13.1,2.92.87,4.279,1,10.359,1a56.814,56.814,0,0,0,8.119-.348c1.04-.3,1.08-.435.84-2.176-2.36-17.8-9.919-29.025-24.677-36.64-7.279-3.742-15.518-6.179-27.916-8.268C-.618-493.113-.018-493.026-.018-492.634Z" transform="translate(0.029 697.854)" fill="#0093ff"/><path d="M1026.378-451.385c-4.119,14.8-5.519,24.064-5.159,34.116.44,12.315,3.8,21.018,11.318,29.242,3.36,3.7,9.119,8.442,9.719,8.007.76-.479,4.44-7.311,5.639-10.531,3.8-9.878,4.079-19.538,1-31.244-1.36-5.091-6.119-15.665-9.8-21.758-3.04-4.961-10.039-15.4-10.4-15.448A79.417,79.417,0,0,0,1026.378-451.385Z" transform="translate(-612.739 678.71)" fill="#0093ff"/><path d="M202.2-451.256c-17.358,25.152-21.917,44.559-14.718,62.662a47.605,47.605,0,0,0,4.879,9.356l.88,1.218,2.12-1.61c9.159-6.875,14.8-15.23,17.438-25.8,1.04-4.047,1.12-4.961,1.12-12.837,0-8.921-.36-12.01-2.4-21.1-1.4-6.179-4.679-17.624-5.039-17.624A54.2,54.2,0,0,0,202.2-451.256Z" transform="translate(-110.522 677.581)" fill="#0093ff"/><path d="M961.058-377.745c-9.519,19.147-13.2,31.287-13.158,43.559.04,12.576,4.4,23.02,13.518,32.288l1.2,1.175,2.52-2.785c9.359-10.4,13.118-23.716,10.959-39.338-1.24-9.138-4.319-18.886-9.879-31.2L962.9-381.4Z" transform="translate(-568.776 634.878)" fill="#0093ff"/><path d="M270.64-372.093c-4,8.964-6.2,14.882-7.919,21.54-4.439,16.666-3,31.07,4.24,42.732,2.2,3.481,6.679,8.964,7.359,8.964.88,0,6.839-7.615,9.039-11.488,6.759-11.967,7.439-25.5,2.12-42.558-1.52-5-9.439-23.324-11.119-25.8C273.96-379.317,273.44-378.4,270.64-372.093Z" transform="translate(-156.123 633.447)" fill="#0093ff"/><path d="M1146.954-378.441c-17,1.523-29.116,6.136-36.916,14.055-6.039,6.136-9.319,12.141-11.918,21.714l-.92,3.394,1.04.435c3.2,1.305,7.319,1.915,13.278,1.915,5.239-.043,6.719-.174,9.6-1.044,13.2-4,24.6-14.752,37.115-35.16,1.8-2.915,3.28-5.4,3.28-5.526C1161.512-379.007,1151.673-378.876,1146.954-378.441Z" transform="translate(-658.364 633.442)" fill="#0093ff"/><path d="M22-377.653c0,.7,7.6,12.663,10.919,17.145C37.078-354.894,44-347.5,48-344.451a50.856,50.856,0,0,0,13.478,7.31c3.24,1.044,4.119,1.175,10.519,1.175,6.039.044,7.479-.087,10.679-.957l3.64-1-.76-3.133c-5.479-21.54-19.2-32.593-44.434-35.726C34.958-377.566,22-378.175,22-377.653Z" transform="translate(-13.189 632.871)" fill="#0093ff"/><path d="M872.049-300.6c-10.2,10.966-15.958,19.234-19.318,27.719a44.8,44.8,0,0,0-1.52,30.591c.96,3.307,3.48,9.573,4.16,10.4a13.687,13.687,0,0,0,3.04-1.479c11.839-6.527,19.278-17.537,22.077-32.68,1.6-8.616,1.52-22.193-.16-34.9-.44-3.264-.8-6.223-.8-6.527,0-.261-.16-.522-.32-.522S875.809-304.693,872.049-300.6Z" transform="translate(-509.563 593.418)" fill="#0093ff"/><path d="M351.546-303.549c-1.72,12.358-2.24,26.24-1.32,34.116a58.981,58.981,0,0,0,7,22.149A48.207,48.207,0,0,0,368.464-235.1c2.88,2.045,6.719,4.308,7.319,4.308.92,0,4.6-9.921,5.719-15.448a53.289,53.289,0,0,0-.4-17.624,62.835,62.835,0,0,0-10.479-22.193,206.287,206.287,0,0,0-16.8-19.19l-1.84-1.654Z" transform="translate(-209.873 592.797)" fill="#0093ff"/><path d="M1049.636-269.136c-12.6,2.219-21.957,8.659-28.476,19.582-2.2,3.7-4.159,7.7-4.159,8.485s6.559,3.916,10.6,5c14.119,3.916,27.877-.479,43.195-13.707,1.76-1.523,6.159-5.961,9.759-9.834l6.6-7.006-2.8-.522c-9.8-1.871-13.518-2.306-22.157-2.437C1055.6-269.7,1052.235-269.615,1049.636-269.136Z" transform="translate(-610.24 571.742)" fill="#0093ff"/><path d="M104.912-268.438c-3.64.435-16.518,2.567-16.718,2.785-.24.261,10.559,11.749,13.918,14.839,8.239,7.572,17.638,13.359,25.2,15.622a37.111,37.111,0,0,0,21.557-.3c4.4-1.436,9.239-3.873,9.239-4.613,0-1.088-3.52-7.746-6.039-11.357-6.759-9.791-16.158-15.317-28.756-17.014A108.3,108.3,0,0,0,104.912-268.438Z" transform="translate(-52.907 571.305)" fill="#0093ff"/><path d="M752.981-216.029c-.64.174-4.079,1.044-7.6,1.915-26.837,6.614-41.155,18.276-45.794,37.379-.88,3.655-1.92,12.184-1.52,12.619.52.566,11.039.218,14.278-.435C726.864-167.6,738.3-179,748.1-200.276c2.12-4.613,6.359-15.4,6.2-15.839C754.221-216.246,753.661-216.246,752.981-216.029Z" transform="translate(-418.812 541.568)" fill="#0093ff"/><path d="M441-214.843c0,.609,3.4,9.138,5.759,14.447,4.6,10.357,8.959,17.58,14.2,23.411,6.6,7.441,13.238,11.575,21.8,13.664,2.96.7,13.918,1.044,14.478.435.48-.479-.48-8.7-1.44-12.706a56.889,56.889,0,0,0-2.64-7.572c-6.479-14.969-19.517-23.8-44.274-30.025C442.04-214.886,441-215.147,441-214.843Z" transform="translate(-264.611 540.86)" fill="#0093ff"/><path d="M947.2-183.174a37.433,37.433,0,0,0-23.877,12.315c-2.8,3-6.319,7.7-6.319,8.442,0,.653,5.6,4.7,9.079,6.614a32.266,32.266,0,0,0,15.718,4.221c10.079.392,19.277-2.35,31-9.356,3.919-2.306,17.4-11.836,17.4-12.271,0-.392-14.118-5.657-19.238-7.136C962.474-182.826,953.755-183.871,947.2-183.174Z" transform="translate(-550.235 523.03)" fill="#0093ff"/><path d="M211.416-181.535c-.56.087-2.24.392-3.8.653-5.919,1-16.678,4.439-26.757,8.66l-1.16.479,2.56,2a141.516,141.516,0,0,0,18.558,12.315c10.319,5.526,17.158,7.485,25.8,7.485a33.672,33.672,0,0,0,16.2-3.742c3.04-1.523,9.519-5.962,10.039-6.832.36-.7-1.64-3.655-5.319-7.833-5.559-6.266-11.4-10.1-18.518-12.141-2.72-.783-4.719-1-10-1.088A74.347,74.347,0,0,0,211.416-181.535Z" transform="translate(-107.817 522.043)" fill="#0093ff"/><path d="M824.817-120.152a44.48,44.48,0,0,0-11.2,4.177,56.57,56.57,0,0,0-8.639,6.179l-.88.87,1.72,2.437c4.319,6.092,10.918,11.706,16.838,14.36,9.239,4.177,21.077,4.569,35.2,1.131,5.159-1.262,19.4-6.136,19.4-6.658,0-.348-10.159-8.268-13.6-10.618-7.8-5.4-15.4-9.138-22.037-10.966A40.608,40.608,0,0,0,824.817-120.152Z" transform="translate(-482.489 487.596)" fill="#0093ff"/><path d="M333.875-119.408c-10.559,1.436-22.8,7.876-37.275,19.582l-4,3.22,1.2.566a156.823,156.823,0,0,0,15.638,5.352A66.9,66.9,0,0,0,327.6-87.772c11.639.435,20.117-2.089,27.916-8.355a56.733,56.733,0,0,0,9.2-10.008l1.28-1.915-2.52-2.045C354.192-117.536,343.833-120.8,333.875-119.408Z" transform="translate(-175.563 487.069)" fill="#0093ff"/><path d="M622.779-96.454c-6.119,1.567-9.4,8.877-6.759,15.013,3.6,8.442,14.518,8.311,17.958-.218,2.36-5.787-.56-12.75-6.159-14.534A7.03,7.03,0,0,0,622.779-96.454Z" transform="translate(-369.079 474.124)" fill="#0093ff"/><path d="M701.937-77.622a44.9,44.9,0,0,0-18.918,7.615l-2.12,1.479,2.08,3.481c4,6.571,11,13.229,16.918,16.057,12.118,5.831,27.236,5.875,48.354.087l5.119-1.392-4.919-4.613c-9.679-9.051-15.358-13.359-22.917-17.406C717.175-76.751,709.016-78.579,701.937-77.622Z" transform="translate(-408.563 463.429)" fill="#0093ff"/><path d="M461.58-76.292c-12.6,1.871-25.2,9.791-42.514,26.762-.44.392.64.827,5.4,2.045,12.4,3.264,17.438,4,26.717,3.96,10,0,16.2-1.48,23-5.439A44.2,44.2,0,0,0,488.936-63.89l2.08-3.307-2.52-1.784C480.177-74.813,470.1-77.554,461.58-76.292Z" transform="translate(-251.395 462.709)" fill="#0093ff"/></g></g></svg>